<svg width="40" height="40" viewBox="0 0 40 40" fill="none" xmlns="http://www.w3.org/2000/svg">
<path d="M18.333 30.5556C21.7219 30.5556 24.6062 29.3681 26.9859 26.9931C29.3654 24.6181 30.5551 21.7316 30.5551 18.3335C30.5551 14.9446 29.3654 12.0603 26.9859 9.68058C24.6062 7.30114 21.7219 6.11141 18.333 6.11141C14.935 6.11141 12.0484 7.30114 9.67343 9.68058C7.29842 12.0603 6.11092 14.9446 6.11092 18.3335C6.11092 21.7316 7.29842 24.6181 9.67343 26.9931C12.0484 29.3681 14.935 30.5556 18.333 30.5556ZM18.333 33.3335C16.2497 33.3335 14.2983 32.9377 12.4788 32.146C10.6594 31.3543 9.07606 30.2849 7.72884 28.9377C6.38162 27.5904 5.31217 26.0071 4.52051 24.1877C3.72884 22.3682 3.33301 20.4168 3.33301 18.3335C3.33301 16.2779 3.72884 14.3404 4.52051 12.521C5.31217 10.7016 6.38162 9.11127 7.72884 7.75016C9.07606 6.38905 10.6594 5.31266 12.4788 4.521C14.2983 3.72933 16.2497 3.3335 18.333 3.3335C20.3886 3.3335 22.3261 3.72933 24.1455 4.521C25.965 5.31266 27.5552 6.38905 28.9163 7.75016C30.2775 9.11127 31.3538 10.7016 32.1455 12.521C32.9372 14.3404 33.333 16.2779 33.333 18.3335C33.333 20.1668 33.0275 21.8936 32.4163 23.5139C31.8052 25.1345 30.958 26.6067 29.8747 27.9306L36.6384 34.7222L34.6801 36.6668L27.8884 29.8889C26.5645 30.9722 25.0923 31.8172 23.4718 32.4239C21.8515 33.0303 20.1386 33.3335 18.333 33.3335Z" fill="#CFCFCF"/>
</svg>
