<svg width="93" height="36" viewBox="0 0 93 36" fill="none" xmlns="http://www.w3.org/2000/svg">
<path d="M53.1924 31.1196H54.0445V35.167H56.5794V35.9381H53.1924V31.1196Z" fill="#58595B"/>
<path d="M66.1888 31.0857H66.9727L69.1029 35.9404H68.2082L67.7183 34.7752H65.439L64.9427 35.9404H64.0757L66.1888 31.0857ZM67.4009 34.0253L66.5659 32.1082L65.7393 34.0253H67.4009Z" fill="#58595B"/>
<path d="M76.9438 31.1198H79.106C79.5661 31.0893 80.0196 31.2425 80.367 31.5458C80.4727 31.6497 80.556 31.7743 80.6117 31.9117C80.6674 32.0491 80.6943 32.1964 80.6908 32.3446V32.3595C80.6934 32.585 80.6295 32.8063 80.5072 32.9957C80.3848 33.1851 80.2094 33.3343 80.0028 33.4246C80.5673 33.6185 80.9592 33.9401 80.9592 34.5962V34.609C80.9592 35.4611 80.2499 35.9318 79.1763 35.9318H76.9438V31.1198ZM78.9356 33.152C79.4788 33.152 79.843 32.9389 79.843 32.498V32.4831C79.843 32.1039 79.5405 31.8696 78.9909 31.8696H77.7725V33.1477L78.9356 33.152ZM79.1827 35.1905C79.7599 35.1905 80.1114 34.9626 80.1114 34.5281V34.5089C80.1114 34.102 79.7876 33.8698 79.1209 33.8698H77.7789V35.1927L79.1827 35.1905Z" fill="#58595B"/>
<path d="M88.6152 35.2374L89.1243 34.6324C89.5327 35.0279 90.0769 35.252 90.6453 35.2587C91.1693 35.2587 91.4974 35.018 91.4974 34.6516V34.6388C91.4974 34.2937 91.3056 34.1084 90.4088 33.9017C89.3842 33.6546 88.8048 33.35 88.8048 32.4618V32.449C88.8048 31.6225 89.495 31.0516 90.4514 31.0516C91.0878 31.0386 91.708 31.2531 92.2003 31.6565L91.7466 32.2956C91.3764 31.9919 90.9171 31.8176 90.4387 31.7993C89.9423 31.7993 89.6526 32.0549 89.6526 32.3723V32.3787C89.6526 32.7493 89.8656 32.9155 90.7965 33.1349C91.8147 33.3841 92.3452 33.7484 92.3452 34.5472V34.5621C92.3452 35.4632 91.6358 36 90.624 36C89.8825 36.0062 89.1657 35.7341 88.6152 35.2374V35.2374Z" fill="#58595B"/>
<path d="M11.554 0.308838L0 26.7549C0.669672 27.2942 1.50362 27.5882 2.36342 27.5882C3.22323 27.5882 4.05718 27.2942 4.72685 26.7549L7.42791 20.4155H19.8425L22.5053 26.7528C23.2029 27.2936 24.0605 27.5871 24.9432 27.5871C25.8259 27.5871 26.6836 27.2936 27.3812 26.7528L15.8293 0.308838H11.554ZM9.115 16.3256L13.6161 5.82385L18.1554 16.3256H9.115Z" fill="#BC1F24"/>
<path d="M37.1245 26.755H37.1352V0.496338H32.5212V26.755H32.5404H32.5255C32.5255 26.755 34.6663 28.6529 37.1373 26.755H37.1245Z" fill="#BC1F24"/>
<path d="M68.1656 0.496338H63.1661L55.2844 20.6776L47.3751 0.496338H42.2627L53.1777 26.9424H53.2033H53.1841C53.7761 27.3604 54.483 27.5849 55.2077 27.5849C55.9325 27.5849 56.6394 27.3604 57.2314 26.9424H57.2144H57.2335L68.1656 0.496338Z" fill="#0F499F"/>
<path d="M91.8999 0.468638C91.7487 0.641182 91.5889 0.805205 91.4249 0.964968C90.844 1.53037 90.195 2.02125 89.4928 2.42627C88.1274 3.2123 86.8365 3.35076 85.5968 3.01845C84.9027 2.80722 84.2232 2.55106 83.5624 2.25159C82.3324 1.67873 81.0623 1.19604 79.7622 0.807335C78.9258 0.577005 78.0629 0.456702 77.1954 0.449466C74.8415 0.449466 72.9116 1.30153 71.4588 2.99076L71.3992 3.05893V6.77607C71.5324 6.99584 71.7184 7.17889 71.9402 7.30862C71.9722 7.30862 72.0084 7.30862 72.0467 7.29371C73.0373 6.33726 73.8808 5.67904 74.554 5.34247C75.2684 4.98638 76.0563 4.80254 76.8545 4.80567C77.8664 4.80567 79.1636 5.16353 80.7123 5.87075C82.2929 6.59288 83.4687 7.05939 84.2058 7.25536C84.9706 7.45567 85.7583 7.55521 86.5489 7.55146C87.5904 7.5669 88.6243 7.37201 89.5887 6.97844C90.5741 6.53344 91.471 5.91429 92.2365 5.15075L92.3111 5.07833V0L91.8999 0.468638Z" fill="#0F499F"/>
<path d="M89.4928 12.2783C88.1274 13.0643 86.8365 13.2028 85.5968 12.8705C84.9027 12.6593 84.2232 12.4031 83.5624 12.1036C82.3325 11.5281 81.0624 11.0426 79.7622 10.6509C78.9255 10.4222 78.0627 10.3027 77.1954 10.2951C74.8415 10.2951 72.9116 11.1472 71.4588 12.8364L71.429 12.8705H71.3992V25.7857C71.5102 25.9768 71.6643 26.1392 71.8492 26.2601C72.0341 26.3811 72.2447 26.4571 72.4643 26.4823C72.5175 26.4823 72.5814 26.4546 72.6453 26.4376C73.2231 25.893 73.8672 25.4235 74.5625 25.0402C75.2769 24.6841 76.0648 24.5002 76.8631 24.5034C77.8749 24.5034 79.1722 24.8612 80.7208 25.5685C82.3014 26.2927 83.4772 26.7592 84.2143 26.9552C84.9791 27.1555 85.7668 27.255 86.5575 27.2513C87.5989 27.2657 88.6325 27.0708 89.5972 26.6783C90.5798 26.2338 91.474 25.6153 92.2365 24.8527L92.3111 24.7824V19.7041L91.885 20.1727C91.1923 20.9496 90.3797 21.6105 89.4779 22.1304C88.1125 22.9164 86.8216 23.0527 85.5819 22.7225C84.8882 22.5103 84.2087 22.2542 83.5475 21.9557C82.3174 21.3823 81.0473 20.8989 79.7473 20.5093C78.9108 20.2796 78.0479 20.16 77.1805 20.1536C76.8301 20.1559 76.4802 20.1779 76.1324 20.2196V14.7088C76.3668 14.6767 76.603 14.6596 76.8396 14.6577C77.8515 14.6577 79.1487 15.0156 80.6974 15.7228C82.278 16.4449 83.4538 16.9114 84.1909 17.1074C84.9557 17.3077 85.7434 17.4073 86.534 17.4035C87.5792 17.4187 88.6166 17.2231 89.5844 16.8284C90.5717 16.3846 91.4703 15.7653 92.2365 15.0007L92.3111 14.9304V9.85205L91.885 10.3207C91.1968 11.0963 90.3893 11.7572 89.4928 12.2783V12.2783Z" fill="#0F499F"/>
</svg>
